<svg width="148" height="32" viewBox="0 0 148 32" fill="none" xmlns="http://www.w3.org/2000/svg">
<path d="M0 3.00797C33.6094 -6.73849 52.857 11.2572 72.1045 0.651523V28.5402C52.857 39.1214 33.6095 21.1267 0 30.8732V3.00797ZM59.6572 10.2013L64.1006 19.6535L61.6211 25.2755L71.1963 10.2013H68.1768L65.5986 16.5353L62.8242 10.2013H59.6572ZM29.2637 9.88199C27.6926 9.88199 26.367 10.4221 25.3359 11.5021C24.3048 12.5823 23.7892 13.9578 23.7646 15.6027C23.7647 17.2474 24.3049 18.6222 25.3359 19.7023C26.3916 20.7824 27.6926 21.3224 29.2637 21.3224C30.8348 21.3224 32.1358 20.7824 33.1914 19.7023C34.247 18.6222 34.7626 17.2474 34.7627 15.6027C34.7627 13.9578 34.2225 12.5823 33.1914 11.5021C32.1358 10.4221 30.8347 9.882 29.2637 9.88199ZM53.7402 9.85758C52.3656 9.8576 51.1629 10.3978 50.1318 11.4533C49.1253 12.5089 48.6094 13.8844 48.6094 15.5539C48.6095 17.2967 49.1252 18.6956 50.1807 19.7511C51.2363 20.8068 52.5132 21.3224 54.0107 21.3224C55.238 21.3224 56.2689 21.0035 57.1035 20.3654C57.9382 19.7271 58.4788 18.9169 58.7734 17.9103L56.416 17.1984C56.0477 18.2785 55.2379 18.843 54.0596 18.8185C53.3476 18.8185 52.7333 18.5731 52.2178 18.1066C51.7024 17.6402 51.4328 17.0509 51.4082 16.339H58.8955L58.9209 16.1916V15.4552C58.9209 13.7123 58.4541 12.3622 57.5459 11.3556C56.613 10.3491 55.3606 9.85758 53.7402 9.85758ZM17.9219 9.90738C16.4735 9.90745 15.3684 10.4965 14.6074 11.6994C14.0673 10.4965 13.0367 9.90743 11.5146 9.90738C10.901 9.90738 10.3118 10.0543 9.72266 10.3488C9.13345 10.6434 8.71537 11.0365 8.44531 11.5275V10.2013H5.74512V21.0041L8.56836 14.6945C8.56836 14.0807 8.74014 13.5648 9.1084 13.172C9.45206 12.7547 9.94313 12.5588 10.5322 12.5587C11.1214 12.5587 11.5881 12.7549 11.9072 13.1232C12.2263 13.4914 12.374 13.9822 12.374 14.5959V21.0041H15.1729V14.6945C15.1729 14.0807 15.3692 13.5894 15.7129 13.172C16.0566 12.7548 16.5232 12.5587 17.1123 12.5587C17.7504 12.5588 18.2172 12.755 18.5117 13.1232C18.8307 13.4914 18.9775 13.9824 18.9775 14.5959V21.0041H21.7275V14.007C21.7275 12.6567 21.3596 11.6251 20.623 10.9377C19.8865 10.2502 18.9775 9.90738 17.9219 9.90738ZM42.7676 9.90641C42.1539 9.90641 41.5645 10.0543 41.0244 10.3244C40.4598 10.5944 40.0427 11.0119 39.748 11.5275V10.2013H36.998V21.0041H39.8213V14.7921C39.8213 14.1539 39.9931 13.6137 40.3613 13.1964C40.705 12.7792 41.196 12.5588 41.7852 12.5587C42.4234 12.5587 42.9142 12.7549 43.2334 13.1476C43.528 13.5404 43.7002 14.0562 43.7002 14.6945V21.0041H46.5479V14.2033C46.5479 12.9267 46.2291 11.8951 45.5908 11.1095C44.9526 10.2995 43.9949 9.90646 42.7676 9.90641ZM29.2881 12.5334C30.0246 12.5334 30.6632 12.8038 31.1787 13.3439C31.6941 13.884 31.9639 14.6454 31.9639 15.6027C31.9638 16.5598 31.694 17.3205 31.1787 17.8605C30.6632 18.4006 30.0246 18.6711 29.2881 18.6711C28.5516 18.671 27.913 18.4006 27.3975 17.8605C26.8577 17.3205 26.6124 16.5843 26.6123 15.6027C26.6123 14.6454 26.8821 13.884 27.3975 13.3439C27.913 12.8038 28.5516 12.5334 29.2881 12.5334ZM53.8145 12.2394C54.5751 12.2395 55.1395 12.4356 55.5322 12.8527C55.9005 13.2701 56.1219 13.7859 56.1465 14.3752H51.457C51.5061 13.835 51.7272 13.3434 52.1445 12.9015C52.5864 12.4597 53.1271 12.2394 53.8145 12.2394Z" fill="white"/>
<path d="M147.303 0.651489V28.4425H72.1045V0.651489H147.303ZM78.4629 9.93079C76.9408 9.93079 75.6395 10.4717 74.6084 11.5519C73.5528 12.6321 73.0371 14.0067 73.0371 15.6515C73.0371 17.2963 73.5528 18.6709 74.6084 19.7511C75.664 20.8558 76.965 21.3965 78.5361 21.3966C79.8373 21.3966 80.9181 21.0275 81.7773 20.3156C82.6363 19.5792 83.2008 18.7447 83.4463 17.7384L80.9668 16.879C80.8195 17.37 80.549 17.7872 80.1562 18.1554C79.7635 18.5235 79.2233 18.6954 78.5605 18.6954C77.7999 18.6953 77.1619 18.4012 76.6465 17.8615C76.131 17.2968 75.8604 16.5599 75.8604 15.6271C75.8604 14.6942 76.1056 13.9572 76.6211 13.4171C77.1366 12.877 77.7507 12.6076 78.5117 12.6075C79.7146 12.6075 80.5 13.221 80.8438 14.4484L83.373 13.5646C83.1275 12.558 82.5868 11.6984 81.7275 10.9865C80.8929 10.2993 79.7883 9.93081 78.4629 9.93079ZM90.0996 9.90637C88.5284 9.9064 87.203 10.4473 86.1719 11.5275C85.1408 12.6077 84.6251 13.9823 84.6006 15.6271C84.6006 17.2719 85.1408 18.6465 86.1719 19.7267C87.2275 20.8069 88.5284 21.3468 90.0996 21.3468C91.6708 21.3468 92.9962 20.8068 94.0273 19.7267C95.083 18.6465 95.5986 17.2719 95.5986 15.6271C95.5986 13.9822 95.083 12.6077 94.0273 11.5275C92.9717 10.4473 91.6708 9.90637 90.0996 9.90637ZM131.05 9.90637C129.479 9.9064 128.153 10.4473 127.122 11.5275C126.091 12.6077 125.575 13.9823 125.551 15.6271C125.551 17.2719 126.091 18.6465 127.122 19.7267C128.178 20.8069 129.479 21.3468 131.05 21.3468C132.621 21.3468 133.946 20.8068 134.978 19.7267C136.033 18.6465 136.549 17.2719 136.549 15.6271C136.549 13.9822 136.009 12.6077 134.978 11.5275C133.922 10.4473 132.621 9.90637 131.05 9.90637ZM111.164 8.48254C111.164 8.99792 111.017 9.41539 110.747 9.7345C110.477 10.0536 110.059 10.2013 109.544 10.2013H109.004V12.7794H110.895V17.8116C110.895 18.8673 111.189 19.6775 111.778 20.2667C112.392 20.8558 113.177 21.1504 114.208 21.1505C114.871 21.1505 115.387 21.0528 115.805 20.881V18.4747C115.608 18.5484 115.338 18.5733 114.945 18.5734C114.528 18.5734 114.208 18.4748 114.012 18.2784C113.815 18.1066 113.718 17.763 113.718 17.3214V12.8038H115.829V10.2257H113.718L111.164 6.96106V8.48254ZM103.603 9.93079C102.989 9.93079 102.399 10.0788 101.859 10.3488C101.295 10.6188 100.877 11.0363 100.582 11.5519V10.2257H97.833V21.0284H100.656V14.8165C100.656 14.1783 100.828 13.6381 101.221 13.2208C101.564 12.8035 102.055 12.5822 102.645 12.5822C103.283 12.5822 103.774 12.7792 104.093 13.172C104.387 13.5648 104.56 14.0806 104.56 14.7189V21.0284H107.383V14.2277C107.383 12.9511 107.064 11.9441 106.426 11.1339C105.788 10.3238 104.83 9.93088 103.603 9.93079ZM123.808 10.1281C122.335 10.1281 121.352 10.6922 120.837 11.8214V10.2257H118.088V21.0284H120.911V16.0939C120.911 15.0137 121.156 14.2273 121.647 13.7609C122.163 13.2945 122.801 13.049 123.611 13.049C123.906 13.049 124.176 13.0985 124.471 13.1476V10.2013C124.176 10.1767 123.955 10.1526 123.808 10.1281ZM138.783 5.14368V21.0275H141.606V5.14368H138.783ZM90.0996 12.5831C90.8361 12.5831 91.4747 12.8526 91.9902 13.3927C92.5058 13.9328 92.7754 14.694 92.7754 15.6515C92.7754 16.609 92.5058 17.3702 91.9902 17.9103C91.4747 18.4504 90.8361 18.7198 90.0996 18.7198C89.3631 18.7198 88.7245 18.4504 88.209 17.9103C87.6935 17.3702 87.4484 16.6089 87.4238 15.6515C87.4238 14.6941 87.6935 13.9328 88.209 13.3927C88.7245 12.8526 89.3631 12.5832 90.0996 12.5831ZM131.074 12.5831C131.811 12.5831 132.449 12.8527 132.965 13.3927C133.48 13.9328 133.75 14.694 133.75 15.6515C133.75 16.609 133.48 17.3702 132.965 17.9103C132.425 18.4503 131.811 18.7198 131.074 18.7198C130.338 18.7198 129.7 18.4501 129.185 17.9103C128.644 17.3702 128.398 16.609 128.398 15.6515C128.398 14.694 128.669 13.9328 129.185 13.3927C129.7 12.8529 130.338 12.5832 131.074 12.5831Z" fill="white"/>
</svg>
