<svg width="147" height="32" viewBox="0 0 147 32" fill="none" xmlns="http://www.w3.org/2000/svg">
<path fill-rule="evenodd" clip-rule="evenodd" d="M5.46298 28.6485V19.5886L0 1.31241H4.51973L7.7818 13.7699H7.8604L11.1225 1.31241H15.2492L9.7862 19.5886V28.6485H5.46298ZM20.3584 7.59972V22.3612C20.3584 24.3138 21.2231 25.0558 22.5987 25.0558C23.9742 25.0558 24.8389 24.3138 24.8389 22.3612V7.59972C24.8389 5.64714 23.9742 4.90516 22.5987 4.90516C21.2231 4.90516 20.3584 5.64714 20.3584 7.59972ZM16.0352 22.0879V7.87308C16.0352 3.4993 18.354 1 22.5987 1C26.8433 1 29.1621 3.4993 29.1621 7.87308V22.0879C29.1621 26.4616 26.8433 28.9609 22.5987 28.9609C18.354 28.9609 16.0352 26.4616 16.0352 22.0879ZM31.756 1.31241H36.0792V22.4003C36.0792 24.3529 36.9439 25.0558 38.3195 25.0558C39.695 25.0558 40.5597 24.3529 40.5597 22.4003V1.31241H44.6471V22.1269C44.6471 26.5007 42.4462 29 38.2015 29C33.9569 29 31.756 26.5007 31.756 22.1269V1.31241ZM61.036 28.6485H56.6342C56.3984 27.9456 56.2412 27.516 56.2412 25.2901V20.9944C56.2412 18.4561 55.3765 17.5188 53.4114 17.5188H51.918V28.6485H47.5947V1.31241H54.1189C58.5993 1.31241 60.5251 3.38215 60.5251 7.59972V9.74756C60.5251 12.5593 59.6211 14.3556 57.6954 15.2538V15.3319C59.857 16.2301 60.5644 18.2608 60.5644 21.1116V25.3292C60.5644 26.6569 60.6037 27.6332 61.036 28.6485ZM54.001 5.21757H51.918V13.6137H53.6079C55.2193 13.6137 56.2019 12.9107 56.2019 10.7239V8.02929C56.2019 6.07671 55.5337 5.21757 54.001 5.21757ZM62.8439 7.87308C62.8439 3.4993 65.0055 1 69.2108 1C73.4162 1 75.5778 3.4993 75.5778 7.87308V8.73222H71.4904V7.59972C71.4904 5.64714 70.7043 4.90516 69.3288 4.90516C67.9532 4.90516 67.1671 5.64714 67.1671 7.59972C67.1671 9.59136 68.0318 11.0753 70.8615 13.5356C74.4773 16.6987 75.6171 18.9637 75.6171 22.0879C75.6171 26.4616 73.4162 28.9609 69.1715 28.9609C64.9269 28.9609 62.726 26.4616 62.726 22.0879V20.4086H66.8134V22.3612C66.8134 24.3138 67.6781 25.0167 69.0536 25.0167C70.4292 25.0167 71.2938 24.3138 71.2938 22.3612C71.2938 20.3696 70.4292 18.8856 67.5995 16.4254C63.9837 13.2622 62.8439 10.9972 62.8439 7.87308ZM76.8354 5.21757V1.31241H90.1981V5.21757H85.6784V28.6485H81.3552V5.21757H76.8354ZM96.0541 7.59972V22.3612C96.0541 24.3138 96.9188 25.0558 98.2943 25.0558C99.6699 25.0558 100.535 24.3138 100.535 22.3612V7.59972C100.535 5.64714 99.6699 4.90516 98.2943 4.90516C96.9188 4.90516 96.0541 5.64714 96.0541 7.59972ZM91.7309 22.0879V7.87308C91.7309 3.4993 94.0497 1 98.2943 1C102.539 1 104.858 3.4993 104.858 7.87308V22.0879C104.858 26.4616 102.539 28.9609 98.2943 28.9609C94.0497 28.9609 91.7309 26.4616 91.7309 22.0879ZM121.089 28.6485H116.688C116.452 27.9456 116.295 27.516 116.295 25.2901V20.9944C116.295 18.4561 115.43 17.5188 113.465 17.5188H111.971V28.6485H107.648V1.31241H114.172C118.653 1.31241 120.579 3.38215 120.579 7.59972V9.74756C120.579 12.5593 119.675 14.3556 117.749 15.2538V15.3319C119.91 16.2301 120.618 18.2608 120.618 21.1116V25.3292C120.618 26.6569 120.657 27.6332 121.089 28.6485ZM114.054 5.21757H111.971V13.6137H113.661C115.273 13.6137 116.255 12.9107 116.255 10.7239V8.02929C116.255 6.07671 115.587 5.21757 114.054 5.21757ZM127.103 28.6485V19.5886L121.64 1.31241H126.159L129.422 13.7699H129.5L132.762 1.31241H136.889L131.426 19.5886V28.6485H127.103Z" fill="white"/>
</svg>
