<svg width="108" height="28" viewBox="0 0 108 28" fill="none" xmlns="http://www.w3.org/2000/svg">
<path d="M10.5301 2.61009H12.873C14.2998 2.39989 15.7569 2.5847 17.0861 3.14443C18.7537 4.14769 19.9632 5.76282 20.4566 7.64529C20.806 8.63178 20.806 8.63178 21.6486 8.2824H22.3063V0.472693H0.254145V1.84967H1.15843C1.55139 1.84695 1.93997 1.9323 2.29562 2.09945C2.65126 2.26661 2.96495 2.51132 3.21361 2.8156C4.05624 4.17203 4.2001 5.69287 4.2001 13.6053C4.2001 22.011 4.01514 24.0662 3.21361 25.1144C3.01574 25.3838 2.75955 25.6051 2.46418 25.7617C2.16881 25.9183 1.84188 26.0061 1.50781 26.0187C0.254145 26.2447 0.254145 26.2242 0.254145 26.7791C0.184816 26.9646 0.184816 27.169 0.254145 27.3545H14.1678C14.2598 27.173 14.3078 26.9723 14.3078 26.7688C14.3078 26.5653 14.2598 26.3646 14.1678 26.1831C13.8308 26.0893 13.4873 26.0206 13.1402 25.9775C12.7646 25.9329 12.3934 25.8573 12.0304 25.7515C11.5104 25.3719 11.0986 24.8632 10.8354 24.2757C10.5723 23.6882 10.4671 23.0422 10.5301 22.4015C10.3246 21.0451 10.2218 18.5583 10.2218 16.5031V14.8795H11.0439C12.0681 14.8482 13.0917 14.9589 14.0855 15.2084C14.5617 15.5026 14.967 15.8983 15.2725 16.3673C15.578 16.8362 15.7762 17.3668 15.853 17.9212L16.038 18.5583H17.2916V9.45386H16.1407L15.9558 10.3376C15.8779 10.9045 15.6682 11.4453 15.3434 11.9165C15.0186 12.3877 14.5877 12.776 14.0855 13.0504C13.5992 13.1952 13.0868 13.2303 12.5853 13.1532H10.2218V10.9336C10.2218 8.63178 10.3451 3.78154 10.4273 3.02112L10.5301 2.61009ZM106.713 18.9077C105.741 17.3441 104.226 16.1949 102.459 15.6811C101.103 15.2575 99.8509 14.5577 98.7797 13.6259C98.5387 13.3928 98.3584 13.1042 98.2545 12.7854C98.1506 12.4665 98.1263 12.1271 98.1837 11.7968C98.1853 11.1487 98.444 10.5278 98.9031 10.0704C99.2142 9.74458 99.6079 9.50937 100.042 9.38992C100.477 9.27047 100.935 9.27126 101.369 9.3922C102.268 9.64826 103.08 10.1426 103.721 10.8228C104.361 11.503 104.805 12.3437 105.007 13.2559C105.336 14.1808 105.377 14.1808 105.973 13.9342L106.343 13.7903V8.67288L106.076 8.54957C104.052 7.83895 101.906 7.54533 99.7662 7.68639C97.9235 7.73309 96.1645 8.46599 94.8338 9.74158C94.2303 10.3065 93.7575 10.9966 93.4487 11.7634C93.1398 12.5302 93.0023 13.3552 93.0458 14.1808C93.0573 15.4429 93.5584 16.6513 94.4433 17.5513C95.4213 18.5131 96.6213 19.219 97.9371 19.6065C101.123 20.8601 102.047 21.6617 102.047 23.1208C102.061 23.7362 101.865 24.3379 101.492 24.8271C101.118 25.3164 100.589 25.6641 99.9923 25.8131C99.2747 25.9708 98.5314 25.9708 97.8138 25.8131C96.8743 25.4485 96.0354 24.8647 95.3669 24.1105C94.6984 23.3562 94.2197 22.4533 93.9706 21.4767L93.7034 20.819H93.3335C93.1567 20.8322 92.9832 20.8738 92.8197 20.9423H92.6142V26.7791H92.9636C94.352 27.241 95.7846 27.5578 97.2384 27.7245H99.2935C100.185 27.7899 101.081 27.7065 101.945 27.4778C103.042 27.2754 104.066 26.7896 104.917 26.0685C105.768 25.3474 106.415 24.4162 106.795 23.3675C107.04 22.7817 107.166 22.1528 107.165 21.5178C107.246 20.6232 107.09 19.723 106.713 18.9077ZM87.3529 8.2824C86.1214 7.76534 84.7944 7.51451 83.4591 7.54639C82.1238 7.57827 80.8103 7.89212 79.6049 8.46737C78.4718 9.02162 77.4675 9.8073 76.6568 10.7737C75.8462 11.7401 75.2472 12.8658 74.8985 14.078C74.4539 15.4004 74.2656 16.7955 74.3436 18.1884C74.3289 18.9463 74.3908 19.7037 74.5286 20.4491C74.8605 22.2819 75.7453 23.9693 77.0642 25.2845C78.3831 26.5998 80.0729 27.4799 81.9067 27.8067C83.1008 27.9571 84.3091 27.9571 85.5033 27.8067C86.7424 27.5883 87.9283 27.1348 88.9971 26.4708C89.8811 25.9752 90.6293 25.2693 91.1756 24.4156C91.1405 24.2817 91.0787 24.1562 90.994 24.0467C90.9092 23.9372 90.8032 23.846 90.6823 23.7785C90.4478 23.8634 90.2263 23.9811 90.0247 24.1279C89.0024 24.8016 87.7954 25.1393 86.5719 25.0938C85.7599 25.1487 84.9459 25.0223 84.1887 24.7237C83.4316 24.4251 82.7504 23.9618 82.1944 23.3675C81.7643 22.968 81.4093 22.4947 81.1463 21.9699C80.5076 20.6923 80.1635 19.2877 80.1392 17.8596V17.058H91.5249V16.647C91.5501 16.2364 91.5501 15.8245 91.5249 15.4139C91.5209 13.9627 91.1327 12.5385 90.3999 11.2859C89.6672 10.0334 88.6159 8.99709 87.3529 8.2824ZM81.6189 15.3933H80.1803V14.1808C80.653 11.0775 81.8245 9.22779 83.2631 9.22779C84.7017 9.22779 85.3183 11.0569 85.5855 14.4069V15.3522H84.3523L81.6189 15.3933ZM52.0654 7.60419C51.3552 7.57665 50.6493 7.7249 50.0102 8.03578C48.6212 8.71034 47.4992 9.83228 46.8247 11.2213L46.5575 11.7146V7.60419H46.4547C46.2081 7.60419 38.6039 9.12503 38.3573 9.22779C38.1107 9.33054 38.1929 9.3511 38.1929 9.72103C38.1929 10.091 38.1929 10.1526 38.3573 10.1732L39.1588 10.3376C39.3833 10.3431 39.6036 10.3996 39.803 10.5029C40.0024 10.6061 40.1757 10.7534 40.3097 10.9336C40.8235 11.6118 40.9263 12.8038 40.9263 17.8801C41.0278 20.1654 40.9315 22.4552 40.6385 24.7239C40.5696 25.066 40.3961 25.3782 40.1421 25.6175C39.8881 25.8568 39.5661 26.0113 39.2205 26.0598L38.5217 26.2036H38.2545V26.7791C38.18 26.9707 38.18 27.1834 38.2545 27.3751H49.743V26.7791C49.7829 26.5824 49.7829 26.3797 49.743 26.1831C49.0513 26.1561 48.3634 26.0667 47.6878 25.9159C47.3199 25.7234 47.0189 25.4241 46.8245 25.0572C46.6301 24.6904 46.5513 24.2732 46.5986 23.8607C46.4342 22.6687 46.352 19.1749 46.3931 16.5031C46.4342 13.8314 46.3931 13.667 46.6191 13.482C47.3069 12.9547 48.1579 12.6856 49.0237 12.7216C49.8399 12.7394 50.6412 12.9432 51.3666 13.3176C51.6181 13.4573 51.8879 13.561 52.1681 13.6259C52.1681 13.6259 54.2233 8.65233 54.2233 8.42626C53.9603 8.12065 53.6253 7.88543 53.2485 7.74189C52.8717 7.59835 52.4651 7.55102 52.0654 7.60419ZM38.2134 16.236C38.1417 14.7673 37.7201 13.3371 36.9836 12.0645C36.2472 10.7918 35.2173 9.71353 33.9797 8.91951C32.5091 8.1261 30.8728 7.68863 29.2024 7.64223C27.532 7.59582 25.8739 7.94179 24.3615 8.65233C22.223 9.77997 20.6084 11.6968 19.8606 13.9958C19.0882 16.5698 19.0882 19.3138 19.8606 21.8877C20.2655 23.2944 21.0224 24.5747 22.0597 25.6076C23.3515 26.8682 25.0173 27.6758 26.8071 27.9094C27.956 28.0055 29.111 28.0055 30.2599 27.9094C30.6826 27.8451 31.1013 27.7559 31.5135 27.6422C33.1864 27.1743 34.6914 26.2396 35.8524 24.9476C37.0134 23.6555 37.7825 22.0595 38.0696 20.3463C38.2747 18.9862 38.323 17.6071 38.2134 16.236ZM29.6639 26.5119C27.6087 27.1285 26.0673 25.1349 25.5535 20.9423C25.3648 18.7473 25.3648 16.5402 25.5535 14.3452C25.9645 10.9747 27.0127 9.26889 28.6363 9.26889C28.9638 9.24859 29.2915 9.30703 29.5918 9.43933C29.8922 9.57162 30.1565 9.77392 30.3626 10.0293C31.7396 11.4063 32.4178 14.1397 32.4178 18.25C32.5888 20.5763 32.2232 22.9107 31.3491 25.0733C30.9632 25.704 30.366 26.1773 29.6639 26.4091V26.5119ZM66.6572 8.01522C66.0773 7.9406 65.4902 7.9406 64.9103 8.01522C63.7971 8.01428 62.6967 8.25258 61.6836 8.71399L61.0465 8.98116V4.52141C61.1579 3.01633 61.1579 1.50508 61.0465 0C60.7999 0 52.9491 1.50029 52.8258 1.56194C52.7652 1.71368 52.7652 1.8829 52.8258 2.03463C52.8258 2.46622 52.8258 2.44567 53.7506 2.65119C54.0103 2.70942 54.2597 2.80642 54.4905 2.93892C54.8917 3.31616 55.1587 3.81409 55.2509 4.35699C55.4849 5.92104 55.5607 7.50469 55.477 9.08392V27.1285L56.0319 27.2518C56.854 27.4367 59.1763 27.8272 59.9367 27.9094C61.4552 28.0302 62.9808 28.0302 64.4993 27.9094C66.1847 27.7373 67.7911 27.1085 69.1456 26.0908C70.5001 25.0732 71.5512 23.7052 72.1856 22.1343C72.5639 21.1261 72.8259 20.0781 72.9666 19.0105C73.089 17.5644 73.0407 16.1089 72.8228 14.674C72.6023 13.0657 71.8924 11.5641 70.7895 10.3729C69.6865 9.1817 68.2439 8.35859 66.6572 8.01522ZM61.2726 26.1625C61.2726 25.8953 61.0671 16.8936 61.1082 13.2971V10.4814L61.7042 10.3376C62.1063 10.28 62.5146 10.28 62.9168 10.3376C63.3615 10.2924 63.8088 10.3934 64.191 10.6253C64.9585 11.155 65.5958 11.8519 66.055 12.6636C66.5143 13.4752 66.7834 14.3804 66.8422 15.3111C66.9919 16.8077 66.9919 18.3154 66.8422 19.812C66.7192 21.9871 65.8811 24.0607 64.4582 25.7104C64.0543 26.094 63.5471 26.3512 62.999 26.4502C62.5842 26.5224 62.1601 26.5224 61.7453 26.4502C61.3548 26.4502 61.3548 26.3269 61.3548 26.1625H61.2726Z" fill="white"/>
</svg>
