<svg width="142" height="32" viewBox="0 0 142 32" fill="none" xmlns="http://www.w3.org/2000/svg">
<g clip-path="url(#clip0_2096_3878)">
<path d="M0.502961 18.8639L2.28781 18.5822V2.03782L0.287109 1.77761L0.395035 0H12.8574L12.555 5.00628L10.0676 4.94097L9.91694 1.79904H6.06012V9.23805H7.7401L8.12904 7.52575L9.8752 7.56861V12.7055H8.15042L7.73908 10.9503H6.06012V18.8424H9.93833L10.3059 15.4189L12.9226 15.5056L13.117 20.7282H0.417435L0.502961 18.8639Z" fill="white"/>
<path d="M14.259 20.7281L14.3241 19.1893L15.7251 18.9077V8.47671L14.0869 8.32467V6.76441L18.185 6.1797L18.4935 7.0685V7.65322C19.4883 6.61237 20.6775 6.00623 22.1915 6.00623C24.4193 6.00623 26.0626 7.35015 26.0626 10.038V18.9087L27.5491 19.1903L27.4626 20.7291H22.6293V10.7849C22.6293 9.35429 22.105 8.55222 20.8282 8.55222C20.3955 8.55222 20.087 8.63896 19.7418 8.74713C19.525 8.9206 19.3305 9.18082 19.1574 9.4196V18.9077L20.6276 19.1893L20.5197 20.7281H14.259Z" fill="white"/>
<path d="M92.4465 20.7282L92.5116 19.1894L93.9126 18.9078V8.47683L92.2744 8.32479V6.76454L96.3725 6.17982L96.68 7.06863V7.65334C97.6748 6.61249 98.864 6.00635 100.378 6.00635C102.606 6.00635 104.249 7.35027 104.249 10.0381V18.9088L105.736 19.1904L105.649 20.7293H100.816V10.7851C100.816 9.35441 100.29 8.55235 99.0147 8.55235C98.583 8.55235 98.2745 8.63908 97.9283 8.74725C97.7125 8.92073 97.517 9.18094 97.3449 9.41972V18.9078L98.8151 19.1894L98.7072 20.7282H92.4465Z" fill="white"/>
<path d="M35.2762 20.4398C34.7141 20.6786 33.698 20.9378 32.3785 20.9378C30.6486 20.9378 29.0379 20.1582 29.0379 17.6214V8.46903L27.3945 8.20882L27.4597 6.38835L29.3199 6.30161L30.1202 3.52703L32.4884 3.41785V6.38733H35.0624L34.8842 8.2078L32.5342 8.46903V17.5999C32.5342 18.3581 32.9456 18.8571 33.7235 18.8571H35.1234L35.2762 20.4398Z" fill="white"/>
<path d="M132.14 20.7288L132.205 19.2328L133.525 18.9298V8.4784L131.968 8.32635V6.76508L136.2 6.18037L136.481 7.19876V7.52429C137.585 6.70079 139.098 6.15894 140.894 6.15894L141.521 6.70079L141.089 10.6244L138.753 10.5376L138.516 8.43554C137.975 8.52228 137.456 8.67432 137.023 8.97739V18.9308L138.494 19.2338L138.386 20.7298H132.14V20.7288Z" fill="white"/>
<path d="M71.1799 20.7288L71.2451 19.2328L72.5646 18.9298V8.4784L71.0068 8.32635V6.76508L75.2394 6.18037L75.5204 7.19876V7.52429C76.6241 6.70079 78.1371 6.15894 79.9331 6.15894L80.5603 6.70079L80.1276 10.6244L77.7919 10.5376L77.5547 8.43554C77.014 8.52228 76.4948 8.67432 76.062 8.97739V18.9308L77.5333 19.2338L77.4254 20.7298H71.1799V20.7288Z" fill="white"/>
<path d="M36.3069 20.7279L36.372 19.232L37.6916 18.9289V8.47754L36.1338 8.3255V6.76422L40.3673 6.17951L40.6483 7.19791V7.52343C41.751 6.69994 43.265 6.15808 45.0601 6.15808L45.6873 6.69994L45.2545 10.6235L42.9189 10.5368L42.6806 8.43468C42.14 8.52142 41.6207 8.67347 41.188 8.97654V18.9299L42.6592 19.233L42.5513 20.729H36.3069V20.7279Z" fill="white"/>
<path d="M49.7234 14.3719C49.7234 16.8638 50.7986 18.7934 52.954 18.7934C54.0567 18.7934 54.9435 18.5547 55.9821 18.0781L56.5665 19.4435C55.5066 20.2884 53.9651 20.9384 52.0183 20.9384C48.2501 20.9384 46.0732 17.6659 46.0732 13.4606C46.0732 9.88397 47.6412 5.97058 51.9776 5.97058C55.7438 5.97058 57.1733 9.47273 57.1733 13.3739L56.8058 14.3055L49.7234 14.3719ZM49.6582 12.7024L54.0109 12.5075C53.9243 10.7728 53.5659 8.0084 51.8625 8.0084C51.4583 8.0084 51.1671 8.07371 50.6479 8.35535C49.9474 9.54723 49.649 11.7014 49.6582 12.7024Z" fill="white"/>
<path d="M109.861 14.3719C109.861 16.8638 110.936 18.7934 113.092 18.7934C114.195 18.7934 115.081 18.5547 116.12 18.0781L116.703 19.4435C115.644 20.2884 114.102 20.9384 112.155 20.9384C108.387 20.9384 106.21 17.6659 106.21 13.4606C106.21 9.88397 107.777 5.97058 112.114 5.97058C115.881 5.97058 117.31 9.47273 117.31 13.3739L116.942 14.3055L109.861 14.3719ZM109.796 12.7024L114.149 12.5075C114.062 10.7728 113.704 8.0084 112 8.0084C111.596 8.0084 111.305 8.07371 110.786 8.35535C110.085 9.54723 109.788 11.7014 109.796 12.7024Z" fill="white"/>
<path d="M84.5974 14.3719C84.5974 16.8638 85.6726 18.7934 87.8281 18.7934C88.9318 18.7934 89.8176 18.5547 90.8561 18.0781L91.4395 19.4435C90.3806 20.2884 88.8381 20.9384 86.8914 20.9384C83.1231 20.9384 80.9463 17.6659 80.9463 13.4606C80.9463 9.88397 82.5132 5.97058 86.8496 5.97058C90.6158 5.97058 92.0453 9.47273 92.0453 13.3739L91.6778 14.3055L84.5974 14.3719ZM84.5323 12.7024L88.8849 12.5075C88.7984 10.7728 88.44 8.0084 86.7366 8.0084C86.3324 8.0084 86.0412 8.07371 85.5219 8.35535C84.8214 9.54723 84.5241 11.7014 84.5323 12.7024Z" fill="white"/>
<path d="M127.094 20.7287L126.726 19.4929C125.774 20.4031 124.845 20.945 123.396 20.945C121.168 20.945 119.173 19.8184 119.173 16.7398V8.10478L117.535 7.95274V6.58739L122.238 6.04553L122.606 7.28129V16.3071C122.606 17.8898 123.242 18.7133 124.52 18.7133C124.883 18.7133 125.342 18.6694 125.753 18.497C125.99 18.2582 126.207 17.9765 126.401 17.6949V8.10478L124.714 7.95274V6.58739L129.466 6.04553L129.834 7.28129V18.9082L131.299 19.1898L131.126 20.7287H127.094Z" fill="white"/>
<path d="M64.2189 18.8638C63.4624 18.8638 62.878 18.7332 62.4025 18.474V9.30538C62.597 9.00231 62.8352 8.72067 63.0735 8.46045C63.5062 8.30841 63.9135 8.24412 64.3676 8.24412C66.3123 8.24412 66.634 10.2187 66.634 13.7525C66.634 17.1556 66.129 18.0924 65.9936 18.4751C65.4733 18.7342 64.9113 18.8638 64.2189 18.8638ZM70.0194 13.1116C70.0194 8.73495 68.7223 5.98486 65.5038 5.98486C63.3637 5.98486 62.3465 7.22266 61.927 7.74512V7.26858L61.5595 6.03282L57.332 6.61856V8.11248L58.9703 8.32882V26.0079L57.5856 26.2896L57.5204 27.7641H63.7648L63.8727 26.2896L62.4025 26.0079V20.4016C62.9869 20.7272 63.8239 20.9435 64.7331 20.9435C69.9716 20.9455 70.0194 15.575 70.0194 13.1116Z" fill="white"/>
<path d="M140.633 18.7C141.344 18.7 141.798 19.1224 141.798 19.7163C141.798 20.3153 141.332 20.7327 140.633 20.7327C139.944 20.7327 139.466 20.3153 139.466 19.7163C139.466 19.1163 139.938 18.7 140.633 18.7ZM140.633 20.4143C141.117 20.4143 141.434 20.1275 141.434 19.7153C141.434 19.303 141.117 19.0163 140.633 19.0163C140.154 19.0163 139.836 19.2979 139.836 19.7153C139.836 20.1275 140.154 20.4143 140.633 20.4143ZM140.125 20.1745L140.131 20.0337L140.251 20.0071V19.3816L140.113 19.3663L140.119 19.2255H140.675C140.915 19.2255 141.137 19.303 141.131 19.5122C141.124 19.6581 141.041 19.7418 140.927 19.7888C140.987 19.8826 141.07 19.9816 141.131 20.0184L141.214 20.0337L141.202 20.1745H140.921C140.825 20.0959 140.735 19.9918 140.652 19.8255H140.562V20.0082L140.682 20.0347L140.67 20.1755H140.125V20.1745ZM140.56 19.3979V19.6694H140.662C140.8 19.6694 140.83 19.6173 140.83 19.5388C140.83 19.4194 140.741 19.3979 140.627 19.3979H140.56Z" fill="white"/>
<path d="M114.342 31.9995H113.604V24.7411H114.342V31.9995Z" fill="white"/>
<path d="M121.657 30.9239H121.677V24.7411H122.415V31.9995H121.494L117.279 25.7554H117.259V31.9995H116.521V24.7411H117.442L121.657 30.9239Z" fill="white"/>
<path d="M124.591 24.7411H126.995C127.444 24.7411 127.897 24.8166 128.35 24.9666C128.803 25.1166 129.213 25.3442 129.578 25.6483C129.941 25.9534 130.237 26.332 130.463 26.7861C130.688 27.2412 130.8 27.7698 130.8 28.3708C130.8 28.98 130.688 29.5086 130.463 29.9606C130.237 30.4107 129.941 30.7892 129.578 31.0923C129.213 31.3974 128.803 31.624 128.35 31.775C127.897 31.926 127.444 32.0005 126.995 32.0005H124.591V24.7411ZM125.328 31.3444H126.791C127.337 31.3444 127.812 31.2586 128.218 31.0872C128.623 30.9168 128.96 30.6923 129.226 30.4158C129.491 30.1392 129.691 29.8239 129.823 29.4678C129.957 29.1116 130.023 28.7463 130.023 28.3708C130.023 27.9953 129.957 27.6289 129.823 27.2738C129.691 26.9187 129.491 26.6024 129.226 26.3248C128.959 26.0483 128.623 25.8248 128.218 25.6544C127.812 25.4829 127.337 25.3972 126.791 25.3972H125.328V31.3444Z" fill="white"/>
<path d="M133.328 31.9995H132.591V24.7411H133.328V31.9995Z" fill="white"/>
<path d="M135.456 31.9995H134.647L137.777 24.7411H138.493L141.604 31.9995H140.785L139.987 30.0923H136.243L135.456 31.9995ZM136.52 29.4157H139.712L138.116 25.5615L136.52 29.4157Z" fill="white"/>
</g>
<defs>
<clipPath id="clip0_2096_3878">
<rect width="141.511" height="32" fill="white" transform="translate(0.287109)"/>
</clipPath>
</defs>
</svg>
