<svg width="156" height="32" viewBox="0 0 156 32" fill="none" xmlns="http://www.w3.org/2000/svg">
<path d="M0.100586 16.0381C0.213799 11.1194 2.00924 7.05138 6.67855 4.74138C11.4074 2.40164 16.3002 2.43845 21.0493 4.73855C24.8928 6.59986 26.8842 9.83698 27.4676 13.9234C27.8349 16.4882 27.6215 19.0176 26.591 21.421C24.6867 25.8641 21.0726 28.1203 16.3234 28.8082C13.6818 29.1904 11.0605 29.0191 8.5306 28.1345C3.51875 26.3807 0.842276 22.8251 0.209445 17.7323C0.139775 17.1718 0.135421 16.6042 0.100586 16.0381ZM16.6123 16.0819H16.6036C16.6036 14.7401 16.6239 13.3982 16.5948 12.0564C16.5789 11.3204 16.38 10.6098 15.9925 9.97145C15.4816 9.13067 14.7094 8.70463 13.705 8.74709C12.6905 8.78955 11.9909 9.31327 11.5772 10.2036C11.3769 10.6339 11.2346 11.0882 11.2071 11.561C11.0329 14.5235 11.0416 17.4875 11.1998 20.4514C11.2259 20.9497 11.3725 21.4267 11.5917 21.8754C12.0329 22.7784 12.7383 23.295 13.8008 23.3205C14.8894 23.346 15.6471 22.8662 16.126 21.9419C16.4352 21.346 16.5978 20.7019 16.6065 20.0367C16.6239 18.7189 16.6108 17.3997 16.6108 16.0819H16.6123Z" fill="white"/>
<path d="M155.163 28.3723C152.104 28.3723 149.208 28.3638 146.314 28.3822C145.907 28.385 145.778 28.1387 145.607 27.8882C144.148 25.7494 142.691 23.6107 141.231 21.472C141.104 21.2865 140.964 21.111 140.723 20.7883V28.327H132.463V3.78595H140.685V17.0812C141.017 17.0742 141.051 16.8194 141.158 16.6651C142.524 14.6934 143.88 12.7132 145.24 10.7372C145.382 10.5291 145.482 10.2942 145.827 10.2956C148.697 10.3069 151.567 10.3012 154.616 10.3012C152.327 13.0883 150.132 15.7578 147.912 18.4613C150.305 21.7324 152.687 24.9865 155.163 28.3708V28.3723Z" fill="white"/>
<path d="M51.5472 28.3383H42.8472V23.7041C42.4771 23.9532 42.4103 24.2576 42.2652 24.4968C40.8428 26.8407 38.8427 28.3793 36.0094 28.7105C32.5477 29.1154 29.7943 26.8054 29.7116 23.2554C29.6129 19.0133 29.6913 14.7656 29.6942 10.5206C29.6942 10.4782 29.7232 10.4343 29.7537 10.3465H38.4246C38.5959 10.5659 38.5074 10.8335 38.5074 11.0812C38.5146 14.2178 38.5132 17.3544 38.5117 20.491C38.5117 21.1294 38.5277 21.7678 38.7048 22.3863C38.982 23.3559 39.6932 23.69 40.6628 23.3319C41.1563 23.1493 41.5409 22.8294 41.8239 22.409C42.4292 21.5102 42.8356 20.5547 42.824 19.4394C42.7964 16.6807 42.8153 13.9205 42.8153 11.1618V10.3451H51.5472V28.3383Z" fill="white"/>
<path d="M119.167 28.7275C116.806 28.7431 114.646 28.3949 112.665 27.3616C109.395 25.6574 107.81 22.944 107.86 19.3474C107.913 15.5794 109.682 12.7811 113.167 11.1746C116.845 9.47887 120.662 9.45906 124.424 10.9212C128.339 12.4428 130.632 16.0381 130.339 19.9305C130.018 24.1953 127.468 27.1337 123.122 28.2463C121.783 28.5888 120.42 28.7431 119.169 28.7289L119.167 28.7275ZM120.979 19.3629C120.979 18.4202 120.993 17.4761 120.97 16.5335C120.963 16.2093 120.9 15.8739 120.794 15.5653C120.519 14.7642 119.892 14.348 119.04 14.3508C118.189 14.3537 117.608 14.7811 117.322 15.6078C117.198 15.9701 117.163 16.3438 117.163 16.7231C117.163 18.4924 117.166 20.2603 117.163 22.0296C117.163 22.4345 117.208 22.8308 117.353 23.2115C117.642 23.9716 118.256 24.3934 119.064 24.3977C119.878 24.4019 120.49 23.99 120.79 23.2328C120.922 22.8987 120.982 22.5519 120.982 22.1938C120.982 21.2511 120.982 20.307 120.982 19.3644L120.979 19.3629Z" fill="white"/>
<path d="M94.5594 28.7289C92.7262 28.736 90.9874 28.5039 89.3255 27.8613C85.7636 26.484 83.6576 23.983 83.4007 20.2165C83.1307 16.2518 84.7215 13.1279 88.4096 11.3161C92.2937 9.4081 96.3447 9.39536 100.317 11.0897C104.146 12.7231 106.199 16.2872 105.837 20.3339C105.487 24.2476 102.872 27.1323 98.6627 28.2406C97.3012 28.5987 95.9122 28.7417 94.5609 28.7289H94.5594ZM92.6667 19.5922C92.7422 20.5802 92.5114 21.7918 92.8017 22.978C93.0209 23.8754 93.6711 24.3793 94.5507 24.3977C95.4579 24.4161 96.1589 23.9037 96.3839 22.9907C96.484 22.5831 96.5131 22.1514 96.5174 21.7296C96.5319 20.1726 96.5218 18.617 96.5247 17.06C96.5247 16.4896 96.4985 15.9234 96.2503 15.3983C95.9136 14.6849 95.333 14.3339 94.5188 14.3508C93.7263 14.3678 93.2023 14.7458 92.9091 15.4506C92.7335 15.8724 92.6682 16.3127 92.6682 16.7642C92.6682 17.6375 92.6682 18.5094 92.6682 19.5922H92.6667Z" fill="white"/>
<path d="M56.7579 15.0232H53.8173V10.3027C54.7055 10.3027 55.5909 10.2786 56.4749 10.314C56.8929 10.331 57.0656 10.1781 57.1977 9.81292C57.7129 8.39181 58.2587 6.98203 58.7928 5.568C58.8828 5.33162 58.9118 5.06976 59.2892 5.07118C61.3401 5.0825 63.3896 5.07684 65.4985 5.07684V10.2715H69.9893V15.0274H65.5377C65.5377 17.0742 65.4521 19.0558 65.5638 21.0261C65.6553 22.6312 67.3172 23.5088 69.2534 23.1323C69.4885 23.087 69.7193 23.0176 70.0401 22.9384C70.0401 24.2972 70.0401 25.6093 70.0401 26.9214C70.0401 27.2116 69.8021 27.3305 69.5916 27.4253C66.5944 28.7672 63.5057 29.373 60.3401 28.1076C57.9539 27.1536 56.7956 25.271 56.7637 22.7671C56.7332 20.4557 56.7579 18.1442 56.7579 15.8328V15.0232Z" fill="white"/>
<path d="M81.1771 28.3595C78.3525 28.3595 75.5266 28.3595 72.6513 28.3595V3.78878H81.3817V4.2856C81.3817 12.1144 81.3817 19.9433 81.3803 27.7721C81.3803 27.9363 81.3556 28.0991 81.344 28.2633C81.2888 28.2958 81.2337 28.327 81.1785 28.3595H81.1771Z" fill="white"/>
</svg>
